<?xml version="1.0" standalone="no"?>
<svg viewBox="0 0 200 200" xmlns="http://www.w3.org/2000/svg">
  <path fill="#FFF3D9" d="M32.1,-58.3C43,-49.4,54.1,-43.5,57.4,-34.3C60.7,-25.1,56.1,-12.6,58.7,1.5C61.4,15.6,71.2,31.2,66.5,37.9C61.8,44.6,42.5,42.4,29,44.5C15.5,46.5,7.7,52.7,-2.6,57.2C-13,61.8,-26,64.7,-34.4,59.8C-42.8,54.8,-46.6,42,-49.5,30.7C-52.4,19.4,-54.5,9.7,-59.8,-3.1C-65,-15.8,-73.6,-31.6,-68.4,-38.9C-63.2,-46.2,-44.2,-44.9,-30.5,-52.2C-16.8,-59.4,-8.4,-75.2,1.1,-77.2C10.6,-79.1,21.2,-67.1,32.1,-58.3Z" transform="translate(100 100)" />
</svg>
