<?xml version="1.0" standalone="no"?>
<svg viewBox="0 0 200 200" xmlns="http://www.w3.org/2000/svg">
  <path fill="#FEFDF8" d="M42.5,-69.5C55.4,-66.2,66.4,-55.4,74.5,-42.6C82.6,-29.8,87.8,-14.9,85.8,-1.1C83.9,12.6,74.7,25.3,66.1,37.2C57.6,49.2,49.5,60.5,38.6,65.8C27.6,71.1,13.8,70.3,0.8,68.9C-12.3,67.6,-24.6,65.7,-34.7,60C-44.8,54.2,-52.8,44.6,-60.4,34C-68.1,23.4,-75.5,11.7,-79.2,-2.2C-82.9,-16,-83,-32,-75.5,-42.9C-68,-53.7,-52.8,-59.5,-39,-62.3C-25.1,-65,-12.6,-64.8,1.1,-66.7C14.8,-68.7,29.6,-72.8,42.5,-69.5Z" transform="translate(100 100)" />
</svg>
