<?xml version="1.0" standalone="no"?>
<svg viewBox="0 0 200 200" xmlns="http://www.w3.org/2000/svg">
  <path fill="#FFF3D9" d="M41.7,-65.6C52.3,-58.1,57.8,-43.5,59.7,-30C61.6,-16.5,59.9,-4,53.1,4C46.3,12,34.3,15.7,25.6,17.8C17,19.9,11.6,20.4,4.2,29.7C-3.2,38.9,-12.6,56.8,-22.6,61.1C-32.6,65.4,-43.3,56.1,-47.5,44.7C-51.6,33.4,-49.4,20.1,-55.5,5.4C-61.6,-9.3,-76.1,-25.3,-73.2,-34.2C-70.3,-43,-50,-44.5,-34.9,-49.9C-19.8,-55.2,-9.9,-64.3,2.9,-68.8C15.6,-73.2,31.2,-73,41.7,-65.6Z" transform="translate(100 100)" />
</svg>
