<?xml version="1.0" standalone="no"?>
<svg viewBox="0 0 200 200" xmlns="http://www.w3.org/2000/svg">
  <path fill="#FEFDF8" d="M25.8,-44.4C33.7,-40.2,40.6,-33.8,43.4,-26C46.2,-18.2,45,-9.1,49.6,2.6C54.2,14.4,64.6,28.8,61.5,36.2C58.4,43.5,41.9,43.8,29.5,48.4C17,53,8.5,61.9,0.3,61.4C-7.9,60.9,-15.7,50.9,-22.9,43.2C-30.1,35.6,-36.7,30.3,-47.8,23.4C-58.9,16.6,-74.6,8.3,-74.5,0.1C-74.3,-8.2,-58.4,-16.3,-49.1,-26.4C-39.9,-36.5,-37.4,-48.5,-30.3,-53.2C-23.3,-57.9,-11.6,-55.3,-1.3,-53C9,-50.7,18,-48.7,25.8,-44.4Z" transform="translate(100 100)" />
</svg>
